<?xml version="1.0" encoding="UTF-8"?>
<svg id="Layer_1" data-name="Layer 1" xmlns="http://www.w3.org/2000/svg" xmlns:xlink="http://www.w3.org/1999/xlink" viewBox="0 315.14 1224 161.72">
  <defs>
    <style>
      .cls-1 {
        clip-path: url(#clippath);
      }

      .cls-2 {
        fill: none;
      }

      .cls-2, .cls-3 {
        stroke-width: 0px;
      }

      .cls-4 {
        clip-path: url(#clippath-1);
      }

      .cls-5 {
        clip-path: url(#clippath-2);
      }

      .cls-3 {
        fill: #000;
      }
    </style>
    <clipPath id="clippath">
      <rect class="cls-2" x="20.73" y="315.14" width="1182.55" height="161.72"/>
    </clipPath>
    <clipPath id="clippath-1">
      <rect class="cls-2" x="20.73" y="315.14" width="1182.55" height="161.72"/>
    </clipPath>
    <clipPath id="clippath-2">
      <rect class="cls-2" x="20.73" y="315.14" width="1182.55" height="161.72"/>
    </clipPath>
  </defs>
  <g class="cls-1">
    <path class="cls-3" d="M104.38,315.14L20.73,476.86c38.73-15.32,70.03-17.6,98.12-16.26l-12.85-28.4c-5.63-.57-21.86-.57-29.57,1.45l27.95-62.14s42.06,91.31,42.13,91.32c8.09,1.27,29.8,8.55,41.52,14.03l-83.66-161.72Z"/>
  </g>
  <polygon class="cls-3" points="207.87 323.37 207.87 361.57 189.68 361.57 189.68 381.76 207.87 381.76 207.87 471.35 234.07 471.35 234.07 381.76 252.87 381.76 252.87 361.57 234.07 361.57 234.07 323.37 207.87 323.37"/>
  <rect class="cls-3" x="268.07" y="323.37" width="26.19" height="147.98"/>
  <g class="cls-4">
    <path class="cls-3" d="M340.48,416.95c0,13.6,9.79,33.39,33.39,33.39,14.6,0,24.2-7.6,29.2-17.59,2.6-4.8,3.8-10,4.2-15.4.2-5.2-.8-10.6-3-15.4-4.6-10.4-14.8-19.4-30.6-19.4-21.2,0-33.19,17.2-33.19,34.19v.2ZM433.26,471.35h-26.19v-15.8c-7,12.8-21.6,19.2-36.99,19.2-35.2,0-55.8-27.4-55.8-58.4,0-34.6,25-58.19,55.8-58.19,20,0,32.19,10.6,36.99,19.4v-16h26.19v109.78Z"/>
    <path class="cls-3" d="M506.87,391.16c-.2-5.8-3.2-11.8-13.4-11.8-8.8,0-12.99,5.6-12.99,11,.2,7,8.2,10.79,18.6,13.8,17.6,4.8,36.6,10,36.8,33.59.4,22.6-18.6,36.99-41.59,36.99-17,0-40-8.8-41.99-35.39h26.19c1,11.8,11.2,14.2,16.2,14.2,8.2,0,15.2-5.4,15-12.8,0-9.4-8.2-12-28.4-18.99-14.8-4.6-26.79-12.8-26.99-28.6,0-21.6,18.19-35,39.39-35,14.8,0,36.8,6.6,39,33h-25.8Z"/>
    <path class="cls-3" d="M760.26,421.76c-9,30.59-37.8,52.39-72.39,52.39-45.19,0-77.59-35.8-77.59-76.99s30.59-76.58,77.39-76.58c42.59.2,66.79,31.59,72.59,53.19h-31.4c-4.6-10.19-17.8-26.79-41.39-26.99-28.8,0-47.39,24.2-47.39,50.39s19.4,50.79,47.6,50.79c26.39,0,38.39-20.8,41.19-26.19h31.4Z"/>
  </g>
  <rect class="cls-3" x="779.68" y="323.37" width="26.19" height="147.98"/>
  <g class="cls-5">
    <path class="cls-3" d="M852.09,416.56c0,19.2,14.59,33.39,32.59,33.39s32.4-14.2,32.4-33.6-14.4-33.59-32.4-33.59-32.59,14.2-32.59,33.59v.2ZM825.89,416.15c0-28,20.6-57.79,58.79-57.79s58.79,29.79,58.79,57.99-20.59,58.19-58.79,58.19-58.79-29.79-58.79-58.19v-.2Z"/>
    <path class="cls-3" d="M1064.87,471.35h-24.6v-14.6c-4.6,8.6-14.4,18.2-34.19,18-36-.2-42.79-27.6-42.79-46.8v-66.39h26.19v59.79c0,16.2,5.4,28.99,23.99,28.8,18.8,0,25.2-12.4,25.2-28v-60.59h26.2v109.78Z"/>
    <path class="cls-3" d="M1111.28,416.35c0,18.6,13.4,33.8,33.59,33.8,9.6,0,18.2-3.8,24.4-10,6.2-6.2,9.8-14.8,9.39-24.4,0-9.6-3.8-17.8-9.8-23.6-6-6-14.39-9.6-23.79-9.6-21.4,0-33.8,16.4-33.8,33.59v.2ZM1203.27,471.35h-25v-15.8c-4.8,8.2-15.2,19.2-37.6,19.2-33.79,0-55.59-26.4-55.59-58.4,0-35.59,25.4-58.19,55.19-58.19,21,0,32.8,11.19,36.8,17.59v-52.39h26.2v147.98Z"/>
  </g>
</svg>